<?xml version="1.0" ?><svg enable-background="new 0 0 201.1252 210.9005" id="shazam" version="1.1" viewBox="0 0 201.1252 210.9005" xml:space="preserve" xmlns="http://www.w3.org/2000/svg" xmlns:xlink="http://www.w3.org/1999/xlink"><g><path d="M139.3123,130.0393c7.6096-7.9064,7.4884-19.0488-0.0664-25.9416   c-7.5936-6.9236-18.6052-6.1348-26.336,1.7052c-5.7536,5.8396-11.4452,11.7832-17.6328,17.164   c-12.5936,10.9608-33.9764,10.4432-46.3552-0.752c-16.1956-14.6504-17.3088-36.7872-2.1564-52.42   c12.6992-13.0956,25.8868-25.7304,38.914-38.5156c5.0784-4.9864,7.0196-10.9044,5.2268-17.6776   C89.0583,6.6369,84.328,2.3085,77.1015,0.7345C76.4295,0.5861,75.7891,0.2501,75.1367,0h-3.422   c-6.2032,1.3673-10.836,5.084-15.164,9.4453c-12.1172,12.2032-24.4884,24.168-36.5116,36.4632   C8.8515,57.34,2.2499,71.0273,0.5235,86.8985C0.4763,87.3125-0.004,90.1485,0,94c0.004,3.7033,0.496,8.424,0.5899,9.0217   c4.4492,28.2068,19.3476,49.0056,46.832,58.744c27.6952,9.8164,53.3828,4.7228,75.3084-15.3028   C128.4763,141.2149,133.9219,135.6409,139.3123,130.0393z" fill="#50CCD3"/><path d="M200.5351,107.8789c-4.4532-28.2069-19.3516-49.0056-46.832-58.744   c-27.6951-9.8164-53.3828-4.7229-75.3088,15.3028c-5.746,5.248-11.1952,10.822-16.582,16.4236   c-7.6092,7.9064-7.492,19.0488,0.0664,25.9416c7.59,6.9236,18.6056,6.1348,26.332-1.7052   c5.758-5.8396,11.4493-11.7832,17.6328-17.164c12.598-10.9608,33.9808-10.4432,46.3596,0.752   c16.1912,14.6503,17.3084,36.7872,2.1524,52.42c-12.6955,13.0956-25.8868,25.7303-38.9104,38.5156   c-5.078,4.9864-7.0232,10.904-5.2264,17.6796c1.8476,6.9628,6.574,11.2908,13.8008,12.8652   c0.6756,0.1504,1.3125,0.4844,1.9648,0.7344h3.4256c6.1992-1.3672,10.832-5.084,15.1604-9.4452   c12.1172-12.2033,24.488-24.168,36.5156-36.4633c11.1836-11.4315,17.7852-25.1187,19.5156-40.9899   c0.0468-0.4141,0.5272-3.2501,0.5236-7.1016C201.1171,113.1973,200.6287,108.4765,200.5351,107.8789z" fill="#50CCD3"/></g></svg>